#!OML:ASF H:\ManfredObstacles\Project 1\Capture day 1\Session 1\Male.ASF
:FULLY-SPECIFIED
:DEGREES
387
root 1.44789 16.4869 -11.5639 -170.396 -3.68025 -178.209
lowerback -4.057 -0.41453 -1.33357
upperback 4.59164 -0.655851 0.948585
thorax 7.09451 -0.478236 1.66646
lowerneck -0.518254 -1.50135 -5.0582
upperneck 15.6904 -4.04075 8.09117
head 5.02091 -2.23168 3.14299
rclavicle 9.69075e-015 5.86415e-015
rhumerus -29.5737 -13.9324 -80.4256
rradius 37.9194
rwrist 22.9283
rhand -0.107765 -9.19378
rfingers 7.12502
rthumb 25.4871 -37.5093
lclavicle 9.69075e-015 5.86415e-015
lhumerus -34.7603 19.7577 71.4966
lradius 20.9216
lwrist -24.6947
lhand -14.8165 9.73103
lfingers 7.12502
lthumb 11.3418 39.4043
rfemur -17.6639 -5.0093 27.2966
rtibia 27.667
rfoot -25.0672 15.0256
rtoes 2.68695
lfemur -38.1506 -3.86399 -15.8059
ltibia 55.6974
lfoot -6.47745 2.84875
ltoes -7.23613
388
root 1.44449 16.4781 -11.7824 -170.35 -3.25374 -178.136
lowerback -4.35083 -0.442095 -1.40842
upperback 4.50647 -0.680756 1.03264
thorax 7.17772 -0.493244 1.79281
lowerneck -0.371471 -1.26611 -5.09996
upperneck 15.674 -3.71529 8.01927
head 4.96732 -2.08659 3.14489
rclavicle 1.07841e-014 -1.39149e-015
rhumerus -28.6164 -11.8086 -81.9199
rradius 39.2182
rwrist 21.9496
rhand 0.210457 -9.22647
rfingers 7.12502
rthumb 25.7919 -37.4981
lclavicle 1.07841e-014 -1.39149e-015
lhumerus -35.7962 20.5651 70.7511
lradius 21.0256
lwrist -24.9024
lhand -14.7689 9.84383
lfingers 7.12502
lthumb 11.3876 39.5146
rfemur -16.6868 -5.17859 27.3006
rtibia 27.3059
rfoot -25.1587 15.809
rtoes 5.06669
lfemur -39.006 -3.97519 -15.5987
ltibia 52.0663
lfoot -6.66039 2.60695
ltoes -7.85335
389
root 1.44055 16.4714 -12.0016 -170.438 -2.74027 -178.089
lowerback -4.49104 -0.447568 -1.53225
upperback 4.45335 -0.675859 1.08676
thorax 7.20495 -0.496811 1.91917
lowerneck -0.276022 -1.09636 -5.01861
upperneck 15.7226 -3.46217 7.75398
head 4.94406 -1.97859 3.06075
rclavicle -1.10574e-014 6.65929e-015
rhumerus -27.791 -9.65505 -83.3983
rradius 40.5016
rwrist 21.0434
rhand 0.468014 -9.24746
rfingers 7.12502
rthumb 26.0386 -37.483
lclavicle -1.10574e-014 6.65929e-015
lhumerus -36.9428 21.2657 70.005
lradius 21.2488
lwrist -25.1441
lhand -14.6724 10.1184
lfingers 7.12502
lthumb 11.4807 39.784
rfemur -15.5026 -5.32712 27.2314
rtibia 26.782
rfoot -25.0548 16.8124
rtoes 7.75306
lfemur -39.4308 -4.02276 -15.4127
ltibia 48.0555
lfoot -6.38592 2.12967
ltoes -7.45802
390
root 1.43632 16.4649 -12.2203 -170.599 -2.22809 -177.844
lowerback -4.59292 -0.348057 -1.35483
upperback 4.45973 -0.559421 1.13541
thorax 7.26389 -0.432694 1.88254
lowerneck -0.190126 -1.01769 -4.64153
upperneck 15.7059 -3.27991 7.15669
head 4.90118 -1.90044 2.81908
rclavicle -7.70291e-016 1.30204e-014
rhumerus -27.0211 -7.60956 -84.8058
rradius 41.6616
rwrist 20.111
rhand 0.499916 -9.10629
rfingers 7.12502
rthumb 26.0691 -37.3374
lclavicle -7.70291e-016 1.30204e-014
lhumerus -37.8544 21.5622 69.4443
lradius 21.2957
lwrist -25.2732
lhand -14.6145 10.1534
lfingers 7.12502
lthumb 11.5365 39.8159
rfemur -14.1536 -5.52037 27.3928
rtibia 26.1113
rfoot -25.1794 17.4556
rtoes 7.54798
lfemur -39.5966 -4.01894 -14.9797
ltibia 43.7956
lfoot -5.89053 1.27014
ltoes -6.55667
391
root 1.43392 16.4586 -12.4445 -170.693 -1.77708 -177.764
lowerback -4.80259 -0.270527 -1.36578
upperback 4.463 -0.452568 1.16167
thorax 7.38501 -0.381901 1.92757
lowerneck -0.14328 -0.916502 -4.92955
upperneck 15.8061 -3.19572 7.42861
head 4.92451 -1.86943 2.95716
rclavicle -2.48481e-017 4.96962e-016
rhumerus -26.3578 -5.70887 -86.0966
rradius 42.6985
rwrist 19.2629
rhand 0.249265 -8.96407
rfingers 7.12502
rthumb 25.8291 -37.2303
lclavicle -2.48481e-017 4.96962e-016
lhumerus -38.7516 21.8483 68.9232
lradius 21.26
lwrist -25.4789
lhand -14.6777 9.83783
lfingers 7.12502
lthumb 11.4756 39.5037
rfemur -12.762 -5.89648 27.4096
rtibia 25.3584
rfoot -25.6234 17.6048
rtoes 5.92609
lfemur -39.6072 -3.96794 -14.7454
ltibia 39.3913
lfoot -4.3331 -0.0801157
ltoes -5.59339
392
root 1.42676 16.4453 -12.6657 -170.859 -1.18814 -177.612
lowerback -4.86394 -0.0963461 -1.23754
upperback 4.46536 -0.229666 1.16747
thorax 7.4122 -0.266157 1.88645
lowerneck 0.131504 -0.857415 -4.85495
upperneck 15.5653 -3.06904 7.22961
head 4.79325 -1.81667 2.88991
rclavicle 2.38542e-015 -4.07509e-015
rhumerus -25.9319 -4.21102 -87.269
rradius 43.7543
rwrist 18.6731
rhand -0.173888 -8.78205
rfingers 7.12502
rthumb 25.4238 -37.1066
lclavicle 2.38542e-015 -4.07509e-015
lhumerus -39.6158 22.1708 68.4113
lradius 21.2242
lwrist -25.8364
lhand -14.841 9.48288
lfingers 7.12502
lthumb 11.3181 39.1575
rfemur -11.2277 -6.14811 27.4534
rtibia 24.5167
rfoot -26.4756 17.1928
rtoes 2.19475
lfemur -39.3524 -3.79835 -14.4585
ltibia 35.0299
lfoot -3.36497 -1.42942
ltoes -3.91719
393
root 1.41843 16.4396 -12.8911 -170.91 -0.521578 -177.475
lowerback -5.08918 0.125398 -1.1276
upperback 4.45597 0.0658758 1.13532
thorax 7.52022 -0.113635 1.82536
lowerneck 0.22881 -0.839151 -4.77018
upperneck 15.5251 -3.04779 7.198
head 4.76181 -1.80719 2.86734
rclavicle -6.4605e-016 1.09332e-015
rhumerus -25.5473 -2.96597 -88.3399
rradius 44.7194
rwrist 18.3649
rhand -0.331336 -8.56025
rfingers 7.12502
rthumb 25.273 -36.9062
lclavicle -6.4605e-016 1.09332e-015
lhumerus -40.372 22.6722 67.8059
lradius 21.0799
lwrist -26.4553
lhand -14.8544 9.29645
lfingers 7.12502
lthumb 11.3052 38.9718
rfemur -9.80746 -6.24249 27.4362
rtibia 23.6543
rfoot -27.3022 16.8756
rtoes -2.67648
lfemur -39.0673 -3.67647 -14.1259
ltibia 30.8472
lfoot -2.36298 -2.57679
ltoes -6.39354
394
root 1.40801 16.4406 -13.1255 -170.904 0.093103 -177.266
lowerback -5.45685 0.182685 -0.91975
upperback 4.42111 0.365616 1.09242
thorax 7.6875 0.143683 1.71458
lowerneck 0.152404 -0.799989 -4.7002
upperneck 15.8316 -3.06248 7.26639
head 4.869 -1.81749 2.8758
rclavicle -2.08724e-015 7.15625e-015
rhumerus -25.1605 -2.01357 -89.3005
rradius 45.4753
rwrist 18.5092
rhand -0.0209723 -8.34071
rfingers 7.12502
rthumb 25.5703 -36.6443
lclavicle -2.08724e-015 7.15625e-015
lhumerus -41.1466 23.1342 67.1265
lradius 20.8548
lwrist -27.1412
lhand -14.744 9.15082
lfingers 7.12502
lthumb 11.4117 38.8203
rfemur -8.43893 -6.33006 27.4493
rtibia 22.7683
rfoot -26.7545 18.1407
rtoes 1.93531
lfemur -38.7345 -3.64354 -13.6912
ltibia 27.0569
lfoot -1.72717 -2.89701
ltoes -6.20902
395
root 1.39686 16.4331 -13.3588 -170.96 0.629747 -177.074
lowerback -5.72786 0.373958 -0.738158
upperback 4.37729 0.603022 1.05966
thorax 7.79133 0.267621 1.60941
lowerneck 0.308044 -0.847998 -4.77993
upperneck 15.7267 -3.148 7.40708
head 4.81819 -1.86218 2.93056
rclavicle 7.95139e-016 -3.57812e-015
rhumerus -24.8179 -1.29367 -90.1298
rradius 46.0455
rwrist 19.0709
rhand 0.432416 -8.13232
rfingers 7.12502
rthumb 26.0045 -36.3729
lclavicle 7.95139e-016 -3.57812e-015
lhumerus -41.8362 23.5488 66.4891
lradius 20.5168
lwrist -27.8826
lhand -14.6178 8.93584
lfingers 7.12502
lthumb 11.5333 38.5985
rfemur -7.00611 -6.29812 27.4302
rtibia 21.8877
rfoot -24.9544 20.1732
rtoes 15.8755
lfemur -38.2861 -3.51517 -13.3721
ltibia 23.8025
lfoot -0.918226 -3.24687
ltoes -7.6806
396
root 1.38216 16.4171 -13.5938 -171.043 1.19644 -177.008
lowerback -6.00214 0.560524 -0.699024
upperback 4.37329 0.84959 1.01154
thorax 7.94013 0.388817 1.57172
lowerneck 0.407349 -0.882308 -4.70956
upperneck 15.6852 -3.19095 7.33189
head 4.78993 -1.88684 2.89399
rclavicle 8.19987e-015 2.98177e-015
rhumerus -24.4531 -0.499398 -90.839
rradius 46.3878
rwrist 19.473
rhand 0.555691 -7.94175
rfingers 7.12502
rthumb 26.1225 -36.165
lclavicle 8.19987e-015 2.98177e-015
lhumerus -42.3951 24.2677 65.8093
lradius 20.0719
lwrist -28.7584
lhand -14.4988 8.69063
lfingers 7.12502
lthumb 11.6481 38.3469
rfemur -5.56822 -6.027 27.2288
rtibia 21.0916
rfoot -24.5762 20.5405
rtoes 15.4122
lfemur -37.7956 -3.07656 -13.4079
ltibia 21.2194
lfoot -0.199602 -3.02992
ltoes -3.60341
397
root 1.36377 16.397 -13.8373 -171.183 1.85864 -177.053
lowerback -6.29765 0.750078 -0.813649
upperback 4.39759 1.1172 0.949955
thorax 8.12987 0.511728 1.61183
lowerneck 0.431817 -0.882533 -4.42708
upperneck 15.7672 -3.17125 7.00684
head 4.80322 -1.88175 2.74572
rclavicle 1.63997e-015 0
rhumerus -24.1265 0.182823 -91.4361
rradius 46.4946
rwrist 19.8014
rhand 0.292326 -7.56795
rfingers 7.12502
rthumb 25.8703 -35.8282
lclavicle 1.63997e-015 0
lhumerus -42.9868 25.1815 65.0227
lradius 19.5862
lwrist -29.8865
lhand -14.4104 8.63689
lfingers 7.12502
lthumb 11.7334 38.2883
rfemur -4.14859 -5.61355 26.8456
rtibia 20.4811
rfoot -26.2111 19.5937
rtoes 2.48168
lfemur -37.2087 -2.38586 -13.7638
ltibia 19.4109
lfoot -0.324741 -3.04216
ltoes -3.81858
